<?xml version="1.0" encoding="utf-8"?>
<!-- Generator: Adobe Illustrator 19.2.0, SVG Export Plug-In . SVG Version: 6.00 Build 0)  -->
<svg version="1.1" id="Layer_1" xmlns="http://www.w3.org/2000/svg" xmlns:xlink="http://www.w3.org/1999/xlink" x="0px" y="0px"
	 viewBox="0 0 512 512" style="enable-background:new 0 0 512 512;" xml:space="preserve">
<style type="text/css">
	.st0{fill:#FFFFFF;}
</style>
<path class="st0" d="M0,230c24.4-18.3,47.3-35.7,70.5-52.6c5-3.7,5.7-6.4,2.2-11.5c-15.6-23.1-30.7-46.5-46.6-70.6
	c71.7-27,143-53.9,214.9-81c6.4,11.2,12.6,22.1,18.8,33.1c0.8,0,1.5,0.2,2,0c10.8-6.1,20.8-3.8,31.5,1.2c17.2,7.9,35,14.5,52.4,22
	c4.3,1.8,7.8,2.1,11.4-0.8c9.3-7.5,17.7-6.1,28-0.3c39.7,22.2,80.1,43.3,120.2,64.8c2.1,1.1,4.2,2.3,6.7,3.7
	c-1.2,1.5-2.2,2.9-3.3,4.1c-17.9,19.1-35.8,38.1-53.8,57.2c-5.6,6-6.2,11.5-1.9,18.8c13.4,22.4,26.9,44.8,40.4,67.2
	c0.8,1.3,1.6,2.6,2.7,4.5c-9.1,4.6-17.9,9.3-26.9,13.5c-3.9,1.8-5.3,4.1-5.3,8.5c0.2,27.5,0,54.9,0.2,82.4c0,4.2-1,6.6-5.2,8.4
	c-72.7,31.6-145.3,63.3-217.8,95.2c-4.5,2-7.7,1.7-11.9-1c-49.7-31.9-99.5-63.5-149.5-95.1c-3.5-2.2-4.4-4.7-4.4-8.5
	c0.1-30.3,0-60.6,0.2-90.9c0-4.6-1.4-7.6-4.9-10.6C48.4,272.1,26.3,252.3,4,232.7C3.1,231.9,1.9,231.3,0,230z M250,463.9
	c1.2-0.4,2-0.5,2.8-0.8c60.2-26.3,120.4-52.6,180.5-79.1c1.8-0.8,3.5-4.1,3.6-6.3c0.3-15.5,0.2-30.9,0.2-46.4c0-3.6,0-7.2,0-11.9
	c-51.4,25.7-101.7,50.8-152.2,76c-11.5-19.2-22.7-37.8-33.9-56.4c-0.3,0.2-0.7,0.4-1,0.7C250,380.9,250,422.2,250,463.9z
	 M102.2,319.7c0,20.6,0.2,39.6-0.1,58.5c-0.1,4.5,1.5,7,5.3,9.3c36.5,23,72.9,46.2,109.3,69.3c1.7,1.1,3.6,2,5.5,3.1
	c0.3-1.1,0.5-1.5,0.5-1.9c0-45.6,0.1-91.1,0-136.7c0-5.9-2.6-7.4-7.8-4.8c-23,11.4-46,22.8-68.9,34.5c-4.2,2.1-6.9,1.7-10.3-1.5
	C125.1,339.8,114.2,330.4,102.2,319.7z M294.8,360.3c54.9-27.5,109.1-54.7,163.7-82.1c-9-15-17.6-29.2-26.4-43.9
	c-55.8,26.1-111.1,51.9-166.6,77.9C275.5,328.5,285,344.1,294.8,360.3z M343.3,116.4c0-3.7-0.4-7.5,0.1-11.1
	c0.6-5.2-1.5-7.6-6.4-9.5c-18.6-7.4-36.9-15.4-55.5-22.8c-3.2-1.3-7.7-1.3-11-0.2c-14.6,4.9-29,10.5-43.5,15.9
	c-18.1,6.7-18.2,6.7-17.5,26.1c0.1,2.3,1.8,5.3,3.7,6.6c20.2,12.9,40.5,25.6,60.9,38.1c1.9,1.2,5.4,1.4,7.6,0.5
	c15.5-6.4,30.5-14,46.2-19.6C340.2,136,347.2,130.2,343.3,116.4z M43.2,231.3c33.2,29.7,65.7,58.7,98.3,87.6
	c1.5,1.3,5.2,1.5,7.2,0.6c14-6.6,27.7-13.6,41.5-20.6c1.2-0.6,2.3-1.6,3.9-2.7C154.3,266.3,115,236.7,75.4,207
	C64.7,215.1,54.3,222.9,43.2,231.3z M236.3,167.8c-2.6-1.8-4.3-3-6.1-4.1c-17.9-11.2-36-22.1-53.5-33.9c-6.4-4.3-11.6-4.6-18.5-1.7
	c-17.6,7.4-35.5,13.9-54.2,21.2c17.1,11.4,34.1,21.4,49.4,33.5c12.1,9.6,22.7,10.6,36.3,3.8C204.4,179.2,220.1,174.1,236.3,167.8z
	 M67.1,108.6c3.9,6,7.6,10.9,10.5,16.2c2.3,4.2,4.7,4.5,8.9,2.8c22.4-8.9,45-17.4,67.5-26.2c9.3-3.6,18.4-10.3,28.1,0.7
	c0.6-5.5,0.5-10,0.6-14.5c0.3-13.3-2.2-9.9,10.5-14.8c13.5-5.2,27.1-10.1,41.3-15.3c-2.2-3.8-4-6.9-6-10.4
	C174.7,67.7,121.3,88,67.1,108.6z M263,186.2c-3,1.1-5,1.8-7,2.6c-20.8,8.1-41.7,16.2-62.5,24.3c-10.8,4.2-10.8,4.2-10.8,16
	c0,8.4,0,16.7,0,25.4c2.1-0.1,3,0.1,3.7-0.2c24.6-10.4,49.2-20.9,73.7-31.6c1.3-0.6,2.7-2.8,2.8-4.3
	C263.1,208.1,263,197.7,263,186.2z M370.2,91.6c0,9.2,0.2,17.1-0.1,24.8c-0.2,4.1,1.1,6,5,7.6c22.5,9.3,44.9,19,67.3,28.4
	c4.9,2.1,9.9,3.8,9.4,11.2c5.7-6,11.4-12.1,17.5-18.6C436.3,127.2,404,109.8,370.2,91.6z M307.8,262.7c-10.9-6-20.5-11.3-30.3-16.4
	c-1.1-0.6-3-0.6-4.2-0.1c-21.2,8.9-42.3,18-64.2,27.4c9.5,7.1,18.2,13.8,27.2,20.3c1,0.7,3.3,0.6,4.6,0
	C262.7,283.8,284.5,273.6,307.8,262.7z M311,176.6c9.9,5.2,18.8,10.2,28,14.6c2.5,1.2,6.4,1.3,8.8,0.1c16.6-7.6,32.9-15.7,49.4-23.7
	c1.4-0.7,2.6-1.6,4.5-2.7c-9.5-4.1-18.2-8.1-27.1-11.5c-2.7-1-6.4-1-9,0.1c-14.3,5.7-28.5,11.8-42.7,17.8
	C319.1,172.9,315.5,174.6,311,176.6z M423.8,185.7c-1.1-0.1-1.6-0.4-1.9-0.2c-20.8,9.9-41.6,19.9-62.3,29.9
	c-1.1,0.6-2.5,2.1-2.5,3.3c-0.2,6.6-0.1,13.2-0.1,20.9c22.3-10.5,43.5-20.4,64.7-30.5c1-0.5,2-2.3,2.1-3.5
	C423.9,199,423.8,192.3,423.8,185.7z M289.8,195.8c0,9-0.1,16.3,0.1,23.7c0,1.3,0.7,3.3,1.7,3.8c12.4,7,24.9,13.7,38.3,21
	c0-9.1,0.1-16.9-0.1-24.6c0-1.2-1-3-2-3.6C315.6,209.4,303.3,203,289.8,195.8z M155.8,233.8c0-4.3-0.3-6.9,0.1-9.5
	c1.1-6.5-1.8-10.1-7.2-13.5c-14-8.8-27.5-18.3-41.2-27.5c-1.5-1-3.1-1.7-6.5-3.6c1.4,6.4,0.8,12.8,3.5,15
	C120.7,208,137.8,220.3,155.8,233.8z"/>
</svg>
