<?xml version="1.0" encoding="utf-8"?>
<!-- Generator: Adobe Illustrator 19.2.0, SVG Export Plug-In . SVG Version: 6.00 Build 0)  -->
<svg version="1.1" id="Capa_1" xmlns="http://www.w3.org/2000/svg" xmlns:xlink="http://www.w3.org/1999/xlink" x="0px" y="0px"
	 viewBox="0 0 512 512" style="enable-background:new 0 0 512 512;" xml:space="preserve">
<style type="text/css">
	.st0{fill:#848484;}
</style>
<path class="st0" d="M256,106.5c-82.5,0-149.5,66.9-149.5,149.5S173.5,405.5,256,405.5S405.5,338.5,405.5,256S338.5,106.5,256,106.5
	z M256,371.6c-63.8,0-115.6-51.7-115.6-115.6S192.2,140.4,256,140.4S371.6,192.2,371.6,256S319.8,371.6,256,371.6z"/>
<rect x="237.8" class="st0" width="36.4" height="67.6"/>
<rect x="237.8" y="444.4" class="st0" width="36.4" height="67.6"/>
<rect x="15.6" y="222.2" transform="matrix(4.488860e-11 -1 1 4.488860e-11 -222.1854 289.8146)" class="st0" width="36.4" height="67.6"/>
<rect x="460" y="222.2" transform="matrix(4.488860e-11 -1 1 4.488860e-11 222.1854 734.1854)" class="st0" width="36.4" height="67.6"/>
<rect x="80.7" y="65.1" transform="matrix(0.7071 -0.7071 0.7071 0.7071 -40.9734 98.8639)" class="st0" width="36.4" height="67.6"/>
<rect x="394.9" y="379.3" transform="matrix(0.7071 -0.7071 0.7071 0.7071 -171.1266 413.0815)" class="st0" width="36.4" height="67.6"/>
<rect x="80.7" y="379.3" transform="matrix(-0.7071 -0.7071 0.7071 -0.7071 -123.3601 775.1202)" class="st0" width="36.4" height="67.6"/>
<rect x="394.9" y="65.1" transform="matrix(-0.7071 -0.7071 0.7071 -0.7071 635.2284 460.9026)" class="st0" width="36.4" height="67.6"/>
</svg>
